{"title":"Our Man Flint - Il Nostro agente Flint (1966) [XviD - Italian En","uid":8938111,"size":1573099708,"categoryP":"video","categoryS":"movies","magnet":"?xt=urn:btih:6af982ca1154cef2f8fe8cea59a0643eecfafc00&amp;dn=Our+Man+Flint+-+Il+Nostro+agente+Flint+%281966%29+%5BXviD+-+Italian+En&amp;tr=udp%3A%2F%2Ftracker.openbittorrent.com%3A80&amp;tr=udp%3A%2F%2Fopen.demonii.com%3A1337&amp;tr=udp%3A%2F%2Ftracker.coppersurfer.tk%3A6969&amp;tr=udp%3A%2F%2Fexodus.desync.com%3A6969","seeders":2,"leechers":0,"uploader":"Freetnt","files":3,"time":1379615925,"description":"Our Man Flint - Il Nostro agente Flint (1966) [XviD - Italian English Ac3 - Sub Ita] MIRCrew [TNT Village]\n\n\n\n\nIl Nostro agente Flint - Our Man Flint (1966) [XviD - Italian English Ac3 - Sub Ita] MIRCrew [TNT Village]\n\n\n\n[b][color=green][IMG]http://img706.imageshack.us/img706/5530/mircreworiginal.gif[/IMG]\n\nIl Nostro agente Flint - Our Man Flint (1966)\n\n[URL=http://www.imdb.com/title/tt0059557/][IMG]http://img197.imageshack.us/img197/1332/imdblogo.gif[/IMG][/URL] \n\n\n[IMG]http://img128.imageshack.us/img128/3562/schedafilmrb.gif[/IMG]\n\nTitolo originale: \tFantastic Voyage\n\nTitolo originale \tOur Man Flint\nLingua originale \tinglese\nPaese di produzione \tStati Uniti d'America\nAnno \t1966\nDurata \t108 min\nRapporto \t2,35 : 1\nGenere \tazione, spionaggio fantascienza\nRegia \tDaniel Mann\nSoggetto \tHal Fimberg\nSceneggiatura \tHal Fimberg, Ben Starr\nProduttore \tSaul David\nCasa di produzione \tTwentieth Century Fox Film Corporation\nFotografia \tDaniel L. Fapp\nMontaggio \tWilliam Reynolds\nMusiche \tJerry Goldsmith\nScenografia \tEd Graves, Jack Martin Smith (art directors)\nRaphael Bretton, Walter M. Scott (set decorators)\nCostumi \tRay Aghayan\nTrucco \tMargaret Donovan, Ben Nye\n\n[IMG]http://imageshack.us/a/img69/2549/hsdz.jpg[/IMG]\n\n\n[u]Interpreti e personaggi[/u]\n\n    James Coburn: Derek Flint\n    Lee J. Cobb: Cramden\n    Gila Golan: Gila\n    Edward Mulhare: Malcolm Rodney\n    Benson Fong: dottor Schneider\n    Shelby Grant: Leslie\n    Sigrid Valdis: Anna\n    Gianna Serra: Gina\n    Helen Funai: Sakito\n    Michael St. Clair: Hans Gruber\n    Rhys Williams: dottor Krupov\n    Russ Conway: generale americano\n    Ena Hartman: WAC\n    Bill Walker: diplomatico americano\n    Peter Brocco: dottor Wu\n    James Brolin: tecnico\n\n[IMG]http://imageshack.us/a/img109/8344/91mn.jpg[/IMG]\n\n\n[IMG]http://img222.imageshack.us/img222/4740/trama.gif[/IMG]\n\nL'organizzazione segreta Galassia sta mettendo in esecuzione un piano diabolico per conquistare il mondo. Cramdem, capo del controspionaggio delle potenze mondiali recatosi da Derek Flint, \n\nil migliore degli agenti segreti, per convincerlo a sgominare la pericolosa organizzazione, viene colpito da una piccola freccia avvelenata - destinata a Flint - lanciatagli da Gila, un \n\nagente di Galassia..............\n\n[u]Storilyne:[/u]\n\nThe world's weather seems to have changed dramatically with violent storms everywhere and long dormant volcanoes suddenly erupting. No one is sure what is happening or why but when American \n\nintelligence chief Cramden loses yet another team of agents, there appears to be only one man who can do the job: Derek Flint, former super spy, incredibly rich and the ultimate ladies man. \n\nDespite Cramden's concerns, Flint is on the job and soon discovers that the Earth's weather is under the control of a secret organization known as GALAXY whose scientists are looking to \n\npacify the world and devote humankind to scientific pursuits........................ [/SIZE]\n\n[IMG]http://imageshack.us/a/img443/7663/b6k9.jpg[/IMG]\n\n[IMG]http://imageshack.us/a/img18/1716/7lhe.jpg[/IMG]\n\n[IMG]http://imageshack.us/a/img834/5326/1x36.jpg[/IMG]\n\n\n\n[IMG]http://img329.imageshack.us/img329/3893/datifile.gif[/IMG]\n\nGeneral\nComplete name                    : F:Il Nostro agente Flinth - Our Man Flint (1966).Ita.Eng.Sub.Ita.MIRCrewIl Nostro agente Flinth - Our Man Flint (1966).Ita.Eng.Sub.Ita.MIRCrew.avi\nFormat                           : AVI\nFormat/Info                      : Audio Video Interleave\nFile size                        : 1.46 GiB\nDuration                         : 1h 43mn\nOverall bit rate                 : 2 026 Kbps\nWriting application              : VirtualDubMod 1.5.10.2 (build 2540/release)\nWriting library                  : VirtualDubMod build 2540/release\n\nVideo\nID                               : 0\nFormat                           : MPEG-4 Visual\nFormat profile                   : Simple@L3\nFormat settings, BVOP            : Yes\nFormat settings, QPel            : No\nFormat settings, GMC             : No warppoints\nFormat settings, Matrix          : Default (H.263)\nCodec ID                         : XVID\nCodec ID/Hint                    : XviD\nDuration                         : 1h 43mn\nBit rate                         : 1 500 Kbps\nWidth                            : 688 pixels\nHeight                           : 288 pixels\nDisplay aspect ratio             : 2.35:1\nFrame rate                       : 25.000 fps\nColor space                      : YUV\nChroma subsampling               : 4:2:0\nBit depth                        : 8 bits\nScan type                        : Progressive\nBits/(Pixel*Frame)               : 0.303\nStream size                      : 1.08 GiB (74%)\n\nAudio #1\nID                               : 1\nFormat                           : AC-3\nFormat/Info                      : Audio Coding 3\nMode extension                   : CM (complete main)\nCodec ID                         : 2000\nDuration                         : 1h 43mn\nBit rate mode                    : Constant\nBit rate                         : 256 Kbps\nChannel(s)                       : 2 channels\nChannel positions                : Front: L R\nSampling rate                    : 48.0 KHz\nBit depth                        : 16 bits\nStream size                      : 189 MiB (13%)\nAlignment                        : Split accross interleaves\nInterleave, duration             : 40 ms (1.00 video frame)\nInterleave, preload duration     : 500 ms\n\nAudio #2\nID                               : 2\nFormat                           : AC-3\nFormat/Info                      : Audio Coding 3\nMode extension                   : CM (complete main)\nCodec ID                         : 2000\nDuration                         : 1h 43mn\nBit rate mode                    : Constant\nBit rate                         : 256 Kbps\nChannel(s)                       : 2 channels\nChannel positions                : Front: L R\nSampling rate                    : 48.0 KHz\nBit depth                        : 16 bits\nStream size                      : 189 MiB (13%)\nAlignment                        : Split accross interleaves\nInterleave, duration             : 40 ms (1.00 video frame)\nInterleave, preload duration     : 500 ms\n\n\n\n\n[IMG]http://a.imageshack.us/img834/1678/sedd24300kb.gif[/IMG]\n\n[IMG]http://img690.imageshack.us/img690/2373/residentinseed.gif[/IMG]\n\n[/color][/b]","torrent":{"xt":"urn:btih:6af982ca1154cef2f8fe8cea59a0643eecfafc00","amp;dn":"Our+Man+Flint+-+Il+Nostro+agente+Flint+%281966%29+%5BXviD+-+Italian+En","amp;tr":["udp%3A%2F%2Ftracker.openbittorrent.com%3A80","udp%3A%2F%2Fopen.demonii.com%3A1337","udp%3A%2F%2Ftracker.coppersurfer.tk%3A6969","udp%3A%2F%2Fexodus.desync.com%3A6969"],"infoHash":"6af982ca1154cef2f8fe8cea59a0643eecfafc00","infoHashBuffer":{"type":"Buffer","data":[106,249,130,202,17,84,206,242,248,254,140,234,89,160,100,62,236,250,252,0]},"announce":[],"urlList":[]}}